<svg width="128" height="55" viewBox="0 0 128 55" fill="none" xmlns="http://www.w3.org/2000/svg">
<path d="M13.7479 24.9847H10.5413V33.5195H13.7479C16.1011 33.5195 17.7715 31.6053 17.7715 29.2521C17.7715 26.8989 16.1011 24.9847 13.7479 24.9847ZM13.7479 32.9099H11.1875V25.5943H13.7479C15.7597 25.5943 17.1375 27.2281 17.1375 29.2521C17.1375 31.2761 15.7597 32.9099 13.7479 32.9099Z" fill="#222222"/>
<path d="M22.3018 32.9099V29.5204H26.2034V28.9107H22.3018V25.5943H26.5082V24.9847H21.6556V33.5195H26.5692V32.9099H22.3018Z" fill="#222222"/>
<path d="M36.338 24.9847H35.6064L32.9118 29.3862L30.2051 24.9847H29.4735L32.5826 30.0081V33.5195H33.2288V30.0081L36.338 24.9847Z" fill="#222222"/>
<path d="M43.0829 33.6536C45.5458 33.6536 47.4845 31.6906 47.4845 29.2521C47.4845 26.8136 45.5458 24.8506 43.0829 24.8506C40.62 24.8506 38.6814 26.8136 38.6814 29.2521C38.6814 31.6906 40.62 33.6536 43.0829 33.6536ZM43.0829 33.0318C40.9736 33.0318 39.3276 31.3492 39.3276 29.2521C39.3276 27.155 40.9736 25.4724 43.0829 25.4724C45.1923 25.4724 46.8383 27.155 46.8383 29.2521C46.8383 31.3492 45.1923 33.0318 43.0829 33.0318Z" fill="#222222"/>
<path d="M53.6785 33.6536C55.3733 33.6536 56.4828 32.727 56.4828 31.3127C56.4828 29.8374 55.166 29.3619 53.6541 28.862C52.4349 28.4596 51.5692 28.1426 51.5692 27.1184C51.5692 26.1674 52.3129 25.4724 53.4956 25.4724C54.7149 25.4724 55.3733 26.1796 55.6903 26.9477L56.239 26.6429C55.8244 25.6553 54.8978 24.8506 53.4956 24.8506C52.0447 24.8506 50.9108 25.7406 50.9108 27.1428C50.9108 28.6303 52.191 29.0326 53.6175 29.496C54.9222 29.9105 55.8244 30.3007 55.8244 31.3249C55.8244 32.3003 55.105 33.0318 53.6785 33.0318C52.2764 33.0318 51.4107 32.3368 51.1181 31.3127L50.5572 31.6419C50.9474 32.8489 52.0813 33.6536 53.6785 33.6536Z" fill="#222222"/>
<path d="M69.039 24.9847H65.8323V33.5195H69.039C71.3922 33.5195 73.0626 31.6053 73.0626 29.2521C73.0626 26.8989 71.3922 24.9847 69.039 24.9847ZM69.039 32.9099H66.4786V25.5943H69.039C71.0508 25.5943 72.4285 27.2281 72.4285 29.2521C72.4285 31.2761 71.0508 32.9099 69.039 32.9099Z" fill="#222222"/>
<path d="M77.5929 32.9099V29.5204H81.4945V28.9107H77.5929V25.5943H81.7993V24.9847H76.9467V33.5195H81.8603V32.9099H77.5929Z" fill="#222222"/>
<path d="M88.3127 33.6536C90.0074 33.6536 91.117 32.727 91.117 31.3127C91.117 29.8374 89.8001 29.3619 88.2883 28.862C87.069 28.4596 86.2033 28.1426 86.2033 27.1184C86.2033 26.1674 86.9471 25.4724 88.1298 25.4724C89.349 25.4724 90.0074 26.1796 90.3244 26.9477L90.8731 26.6429C90.4585 25.6553 89.5319 24.8506 88.1298 24.8506C86.6788 24.8506 85.5449 25.7406 85.5449 27.1428C85.5449 28.6303 86.8252 29.0326 88.2517 29.496C89.5563 29.9105 90.4585 30.3007 90.4585 31.3249C90.4585 32.3003 89.7392 33.0318 88.3127 33.0318C86.9105 33.0318 86.0448 32.3368 85.7522 31.3127L85.1913 31.6419C85.5815 32.8489 86.7154 33.6536 88.3127 33.6536Z" fill="#222222"/>
<path d="M94.9008 24.9847V33.5195H95.547V24.9847H94.9008Z" fill="#222222"/>
<path d="M108.039 29.5447H103.759V30.1544H107.381C107.247 31.7516 105.991 33.0318 103.918 33.0318C101.626 33.0318 100.077 31.3492 100.077 29.2521C100.077 27.155 101.626 25.4724 103.869 25.4724C105.21 25.4724 106.405 26.1796 106.966 27.2525L107.539 26.9111C106.832 25.6797 105.454 24.8506 103.869 24.8506C101.272 24.8506 99.4311 26.8136 99.4311 29.2521C99.4311 31.6906 101.272 33.6536 103.918 33.6536C106.466 33.6536 108.039 31.9345 108.039 29.8739V29.5447Z" fill="#222222"/>
<path d="M117.523 24.9847V32.3247L112.475 24.9847H111.914V33.5195H112.56V26.1796L117.596 33.5195H118.169V24.9847H117.523Z" fill="#222222"/>
<circle cx="97.9473" cy="48.4218" r="1.49021" fill="#222222"/>
<circle cx="90.4964" cy="43.8156" r="1.62568" fill="#222222"/>
<ellipse cx="83.0453" cy="38.0579" rx="1.76115" ry="1.82889" fill="#222222"/>
<circle cx="105.399" cy="51.6729" r="1.21926" fill="#222222"/>
<circle cx="112.579" cy="53.5696" r="1.08379" fill="#222222"/>
<circle cx="119.149" cy="53.3664" r="0.880577" fill="#222222"/>
<circle cx="124.568" cy="50.115" r="0.880577" fill="#222222"/>
<circle cx="126.667" cy="45.5765" r="0.81284" fill="#222222"/>
<circle cx="127.323" cy="40.5441" r="0.677367" fill="#222222"/>
<circle cx="126.532" cy="34.8741" r="0.677367" fill="#222222"/>
<circle cx="124.771" cy="28.9135" r="0.541894" fill="#222222"/>
<circle cx="121.723" cy="22.3433" r="0.474157" fill="#222222"/>
<circle cx="118.268" cy="16.3532" r="0.40642" fill="#222222"/>
<circle cx="115.491" cy="12.1824" r="0.338684" fill="#222222"/>
<circle cx="62.724" cy="19.2948" r="1.76115" fill="#222222"/>
<circle cx="54.9343" cy="12.7247" r="1.42247" fill="#222222"/>
<circle cx="46.5356" cy="7.03482" r="1.15152" fill="#222222"/>
<circle cx="38.6099" cy="3.17363" r="1.08379" fill="#222222"/>
<circle cx="29.7466" cy="0.948314" r="0.948314" fill="#222222"/>
<circle cx="21.9466" cy="1.68345" r="0.81284" fill="#222222"/>
<circle cx="14.4285" cy="5.34471" r="0.745104" fill="#222222"/>
<circle cx="9.2219" cy="10.1209" r="0.60963" fill="#222222"/>
<circle cx="5.02044" cy="16.6391" r="0.541894" fill="#222222"/>
<circle cx="1.96421" cy="24.1045" r="0.474157" fill="#222222"/>
<circle cx="0.406481" cy="30.8102" r="0.40642" fill="#222222"/>
</svg>
