<svg width="156" height="66" viewBox="0 0 156 66" fill="none" xmlns="http://www.w3.org/2000/svg">
<path d="M17.315 30.1717H13.4426V40.4784H17.315C20.1567 40.4784 22.1739 38.1668 22.1739 35.3251C22.1739 32.4834 20.1567 30.1717 17.315 30.1717ZM17.315 39.7423H14.223V30.9079H17.315C19.7444 30.9079 21.4082 32.8809 21.4082 35.3251C21.4082 37.7693 19.7444 39.7423 17.315 39.7423Z" fill="white"/>
<path d="M27.6447 39.7423V35.649H32.3563V34.9128H27.6447V30.9079H32.7244V30.1717H26.8643V40.4784H32.7981V39.7423H27.6447Z" fill="white"/>
<path d="M44.5949 30.1717H43.7114L40.4575 35.487L37.1888 30.1717H36.3053L40.0599 36.238V40.4784H40.8403V36.238L44.5949 30.1717Z" fill="white"/>
<path d="M52.7402 40.6404C55.7144 40.6404 58.0555 38.2699 58.0555 35.3251C58.0555 32.3803 55.7144 30.0098 52.7402 30.0098C49.7659 30.0098 47.4249 32.3803 47.4249 35.3251C47.4249 38.2699 49.7659 40.6404 52.7402 40.6404ZM52.7402 39.8895C50.1929 39.8895 48.2052 37.8576 48.2052 35.3251C48.2052 32.7926 50.1929 30.7607 52.7402 30.7607C55.2874 30.7607 57.2751 32.7926 57.2751 35.3251C57.2751 37.8576 55.2874 39.8895 52.7402 39.8895Z" fill="white"/>
<path d="M65.5355 40.6404C67.5821 40.6404 68.922 39.5214 68.922 37.8134C68.922 36.0318 67.3318 35.4576 65.506 34.8539C64.0336 34.368 62.9882 33.9852 62.9882 32.7484C62.9882 31.5999 63.8864 30.7607 65.3146 30.7607C66.787 30.7607 67.5821 31.6147 67.9649 32.5423L68.6275 32.1742C68.1269 30.9815 67.0078 30.0098 65.3146 30.0098C63.5625 30.0098 62.1931 31.0846 62.1931 32.7779C62.1931 34.5742 63.7391 35.0601 65.4618 35.6196C67.0373 36.1202 68.1269 36.5913 68.1269 37.8281C68.1269 39.0061 67.2582 39.8895 65.5355 39.8895C63.8422 39.8895 62.7968 39.0502 62.4434 37.8134L61.7661 38.211C62.2373 39.6686 63.6066 40.6404 65.5355 40.6404Z" fill="white"/>
<path d="M84.0849 30.1717H80.2125V40.4784H84.0849C86.9266 40.4784 88.9438 38.1668 88.9438 35.3251C88.9438 32.4834 86.9266 30.1717 84.0849 30.1717ZM84.0849 39.7423H80.9929V30.9079H84.0849C86.5143 30.9079 88.1781 32.8809 88.1781 35.3251C88.1781 37.7693 86.5143 39.7423 84.0849 39.7423Z" fill="white"/>
<path d="M94.4146 39.7423V35.649H99.1263V34.9128H94.4146V30.9079H99.4944V30.1717H93.6343V40.4784H99.568V39.7423H94.4146Z" fill="white"/>
<path d="M107.36 40.6404C109.407 40.6404 110.746 39.5214 110.746 37.8134C110.746 36.0318 109.156 35.4576 107.33 34.8539C105.858 34.368 104.813 33.9852 104.813 32.7484C104.813 31.5999 105.711 30.7607 107.139 30.7607C108.611 30.7607 109.407 31.6147 109.789 32.5423L110.452 32.1742C109.951 30.9815 108.832 30.0098 107.139 30.0098C105.387 30.0098 104.018 31.0846 104.018 32.7779C104.018 34.5742 105.564 35.0601 107.286 35.6196C108.862 36.1202 109.951 36.5913 109.951 37.8281C109.951 39.0061 109.083 39.8895 107.36 39.8895C105.667 39.8895 104.621 39.0502 104.268 37.8134L103.591 38.211C104.062 39.6686 105.431 40.6404 107.36 40.6404Z" fill="white"/>
<path d="M115.316 30.1717V40.4784H116.096V30.1717H115.316Z" fill="white"/>
<path d="M131.182 35.6785H126.014V36.4147H130.387C130.225 38.3435 128.708 39.8895 126.205 39.8895C123.437 39.8895 121.567 37.8576 121.567 35.3251C121.567 32.7926 123.437 30.7607 126.146 30.7607C127.766 30.7607 129.209 31.6147 129.886 32.9104L130.578 32.4981C129.724 31.011 128.06 30.0098 126.146 30.0098C123.01 30.0098 120.787 32.3803 120.787 35.3251C120.787 38.2699 123.01 40.6404 126.205 40.6404C129.282 40.6404 131.182 38.5643 131.182 36.076V35.6785Z" fill="white"/>
<path d="M142.634 30.1717V39.0355L136.539 30.1717H135.861V40.4784H136.642V31.6147L142.723 40.4784H143.415V30.1717H142.634Z" fill="white"/>
<circle cx="118.995" cy="58.4744" r="1.79959" fill="white"/>
<circle cx="109.997" cy="52.9119" r="1.96318" fill="white"/>
<ellipse cx="100.999" cy="45.9591" rx="2.12678" ry="2.20858" fill="white"/>
<circle cx="127.993" cy="62.4009" r="1.47239" fill="white"/>
<circle cx="136.664" cy="64.6914" r="1.30879" fill="white"/>
<circle cx="144.598" cy="64.446" r="1.06339" fill="white"/>
<circle cx="151.142" cy="60.5194" r="1.06339" fill="white"/>
<circle cx="153.677" cy="55.039" r="0.981592" fill="white"/>
<circle cx="154.469" cy="48.9615" r="0.817993" fill="white"/>
<circle cx="153.514" cy="42.1144" r="0.817993" fill="white"/>
<circle cx="151.387" cy="34.9164" r="0.654395" fill="white"/>
<circle cx="147.706" cy="26.9818" r="0.572595" fill="white"/>
<circle cx="143.534" cy="19.7481" r="0.490796" fill="white"/>
<circle cx="140.181" cy="14.7117" r="0.408997" fill="white"/>
<circle cx="76.4589" cy="23.3009" r="2.12678" fill="white"/>
<circle cx="67.052" cy="15.3662" r="1.71779" fill="white"/>
<circle cx="56.9097" cy="8.49508" r="1.39059" fill="white"/>
<circle cx="47.3385" cy="3.83247" r="1.30879" fill="white"/>
<circle cx="36.6351" cy="1.14519" r="1.14519" fill="white"/>
<circle cx="27.2157" cy="2.03286" r="0.981592" fill="white"/>
<circle cx="18.1368" cy="6.45448" r="0.899793" fill="white"/>
<circle cx="11.8493" cy="12.222" r="0.736194" fill="white"/>
<circle cx="6.77563" cy="20.0931" r="0.654395" fill="white"/>
<circle cx="3.08488" cy="29.1085" r="0.572595" fill="white"/>
<circle cx="1.20376" cy="37.2066" r="0.490796" fill="white"/>
</svg>
